<svg version="1" id="ALS_logo_svg" xmlns="http://www.w3.org/2000/svg" x="0" y="0" width="100" height="46" viewBox="0 0 100 46"><path fill="#333333" d="M99 1v32H1V1h98m1-1H0v34h100V0z"/><path fill="#333333" d="M80.649 22.75l-.601 4.261h-.249l-.337-4.136L78.811 4H77l1.499 26h2.619L83.6 4h-2.072zM67.569 4H64v26h3.439C69.415 30 70 28.84 70 27V6.766C70 4.924 69.545 4 67.569 4zM68 27.462c0 1.323.06 1.538-1 1.538h-1V5h1c1.06 0 1 .216 1 1.537v20.925zM72 30h4v-1h-2V16h1.341v-1H74V5h2V4h-4zM18 4l-2 26h1.525l.736-8H20l.226 8h2.076L20.85 4H18zm.333 17l.599-11.745.298-3.156h.57l.2 3.156V21h-1.667zM43 4h-2v26h4v-1h-2zM46 30h4v-1h-2V16h1.326v-1H48V5h1.989V4H46zM30.713 5h1.666v25h1.861V5h1.601V4h-5.128zM36.617 27.939c-.669 0-1.206.533-1.206 1.191 0 .663.537 1.193 1.206 1.193.667 0 1.205-.53 1.205-1.193 0-.657-.537-1.191-1.205-1.191zM55.709 4H51v26h3.94c1.249 0 2.045-1.002 2.06-2.094V17.631c0-1.254-.219-1.568-.666-1.821v-.564c.551-.276.666-.557.666-1.434v-8.23C57 4.66 56.652 4 55.709 4zM55 28.104c-.012.689-.057.832-.61.832h-1.403L53 16h1.406c.551 0 .594.301.594 1.422v10.682zm0-14.463c0 1.091.028 1.303-.551 1.359H53l-.014-10h1.447c.466 0 .567.216.567.792v7.849zM27.594 4H24v26h2V18h1.331c.61 0 .669.282.669 1v11h2l-.011-9.89c0-1.425.073-1.795-.724-2.259v-.603c.529-.057.735-.125.735-1.533V7c0-1.842-.446-3-2.406-3zM28 16c0 .805.019 1-.636 1H26V5l.839-.016C27.883 5 28 5.677 28 7v9zM59 30h4v-1h-2V16h1.336v-1H61V5h2V4h-4z"/><path fill="#333333" d="M3.502 39.842c0-.738-.558-1.08-1.098-1.08-.486 0-1 .261-1.387.576l-.405-.495c.468-.522 1.233-.828 1.917-.828.981 0 1.909.567 1.909 1.827 0 1.54-1.773 3.241-2.791 4.178h2.881v.792H.54v-.648c.99-1.027 2.962-2.755 2.962-4.322zm4.918 5.123c-1.863 0-2.386-1.963-2.386-3.476 0-1.512.522-3.475 2.386-3.475s2.386 1.963 2.386 3.475c0 1.513-.522 3.476-2.386 3.476zm0-6.275c-1.269 0-1.503 1.837-1.503 2.8 0 .964.234 2.81 1.503 2.81 1.27 0 1.504-1.846 1.504-2.81 0-.963-.234-2.8-1.504-2.8zm6.528 1.152c0-.738-.558-1.08-1.098-1.08-.486 0-1 .261-1.387.576l-.405-.495c.468-.522 1.233-.828 1.917-.828.981 0 1.909.567 1.909 1.827 0 1.54-1.773 3.241-2.791 4.178h2.881v.792h-3.988v-.648c.991-1.027 2.962-2.755 2.962-4.322zm2.351-.602l1.944-1.152h.567v5.987l1.197.216v.441h-3.286v-.442l1.197-.216v-4.997c.009-.009-1.458.541-1.458.541l-.161-.378z"/></svg>