<svg width="580" height="757" viewBox="0 0 580 757" fill="none" xmlns="http://www.w3.org/2000/svg">
<path d="M190.819 229.122C190.819 229.122 190.293 236.936 197.596 244.736C204.899 252.535 219.987 246.824 225.187 231.722C230.387 216.619 226.224 205.168 215.824 198.931C205.425 192.695 203.322 200.494 193.433 205.168C183.545 209.842 161.3 209.316 158.554 211.945C156.728 213.727 165.594 217.13 167.405 174.452C168.253 154.383 192.236 142.173 192.236 142.173L218.044 131.189C218.044 131.189 202.781 76.5185 202.27 78.6072C201.759 80.6958 155.94 121.301 138.237 156.691C120.535 192.081 125.223 205.636 112.721 207.198C100.218 208.761 30.4596 204.599 22.66 203.036C14.8603 201.473 -2.94433 198.873 1.78801 206.673C6.52036 214.472 12.2459 217.613 22.66 217.613C33.074 217.613 55.4504 217.613 73.6787 220.212C91.907 222.812 98.6696 221.249 99.7066 225.938C100.744 230.626 103.869 237.389 95.0181 240.544C86.1669 243.699 91.3812 247.847 74.7158 244.195C58.0503 240.544 35.1481 243.144 28.8967 244.707C22.6454 246.269 13.8087 240.018 21.5937 250.958C29.3787 261.898 39.2962 263.446 51.2731 261.883C63.2501 260.32 86.6781 258.758 86.6781 262.409C86.6781 266.061 74.7012 304.065 71.0643 330.605C67.4274 357.144 66.3757 429.531 74.7011 465.447C83.0266 501.363 104.395 521.169 103.358 528.472C102.321 535.775 97.618 534.197 79.9885 541.486C62.3591 548.774 24.2812 555.026 26.8811 572.728C29.481 590.431 48.7901 609.681 63.8489 615.407C78.9077 621.132 94.5215 627.384 94.5215 627.384C94.5215 627.384 121.645 648.738 134.06 661.226C146.475 673.714 153.325 665.914 153.325 665.914L146.563 634.672L156.977 627.91C156.977 627.91 188.204 648.738 200.181 653.412C212.158 658.086 240.786 646.109 246.526 644.648C252.266 643.188 200.707 632.598 182.99 611.726C165.273 590.854 108.499 517.488 96.5664 486.786C85.4256 458.975 79.7714 429.271 79.9155 399.311C79.9155 370.099 95.5293 296.237 98.655 283.223C100.342 275.996 102.424 268.867 104.892 261.869C104.892 261.869 118.432 264.483 127.283 263.432C136.134 262.38 142.897 257.195 141.889 253.032C140.881 248.869 139.815 245.729 133.563 245.729C127.312 245.729 120.549 247.803 118.461 247.277C116.372 246.751 118.987 232.189 118.987 232.189C118.987 232.189 117.526 225.938 123.996 225.938C130.467 225.938 151.748 235.315 153.34 232.189C154.932 229.064 165.843 225.412 170.531 223.338C175.22 221.264 201.204 220.738 201.204 220.738L190.819 229.122Z" fill="black" stroke="black" stroke-miterlimit="10"/>
<path d="M160.423 193.673C160.423 193.673 123.455 157.158 123.981 139.529C124.507 121.9 126.581 121.301 126.581 111.924C126.581 102.547 126.07 112.449 127.107 96.3098C128.144 80.1702 148.446 54.6681 188.014 39.5655C227.582 24.4629 252.573 7.81206 300.48 17.1745C348.388 26.537 354.113 23.4259 377.527 38.5285C400.94 53.6311 417.62 56.4354 433.76 68.8213C449.9 81.2072 466.565 87.4586 478.016 106.724C489.467 125.989 499.925 140.04 499.925 140.04C504.562 147.095 509.579 153.892 514.955 160.401C523.295 170.304 533.709 185.918 533.709 185.918L538.383 215.13C538.383 215.13 541.508 235.257 533.183 240.296C524.858 245.335 507.155 213.041 491.016 193.264C474.876 173.488 395.215 152.66 347.322 134.957C299.429 117.255 165.638 116.101 160.423 193.673Z" fill="black" stroke="black" stroke-miterlimit="10"/>
<path d="M333.986 200.494C324.682 201.75 318.883 208.82 316.795 219.745C314.706 230.67 316.795 243.699 324.098 247.861C331.401 252.024 341.289 253.587 346.007 244.225C350.724 234.862 352.258 232.759 352.258 229.122C352.258 225.485 354.347 215.582 355.91 215.582C357.472 215.582 345.437 198.931 333.986 200.494Z" fill="black" stroke="black" stroke-miterlimit="10"/>
<path d="M411.164 251.849C409.076 257.005 404.694 257.692 407.527 260.832C410.361 263.972 419.665 261.869 419.665 261.869C419.665 261.869 526.902 268.047 528.129 262.541C529.356 257.034 529.341 251.849 520.432 251.849C511.522 251.849 414.816 242.881 411.164 251.849Z" fill="black" stroke="black" stroke-miterlimit="10"/>
<path d="M408.432 214.019C401.991 226.478 408.944 232.247 416.232 230.684C423.52 229.121 554.712 222.87 557.837 214.019C560.963 205.167 570.851 202.334 557.837 200.377C544.823 198.419 416.232 198.931 408.432 214.019Z" fill="black" stroke="black" stroke-miterlimit="10"/>
<path d="M413.633 140.624C414.349 142.085 437.587 165.089 448.512 187.466C459.438 209.842 494.331 271.815 495.894 288.992C497.457 306.169 510.982 387.393 501.094 421.22C491.206 455.048 499.531 453.499 489.117 482.653C478.703 511.807 417.796 577.928 405.308 595.119C392.82 612.31 358.977 628.961 337.624 632.087C316.27 635.213 288.168 637.812 281.916 637.812C275.665 637.812 263.177 629.487 259.54 641.975C255.903 654.463 260.051 650.315 268.391 671.655C276.731 692.994 280.353 685.194 295.982 701.334C311.61 717.474 306.907 723.71 325.194 732.007C343.481 740.303 350.696 734.607 350.696 734.607C350.696 734.607 352.785 718.54 351.222 708.579C349.659 698.617 357.473 696.602 357.473 696.602L376.213 708.579L390.819 714.304L401.233 703.89L415.839 695.565L434.578 696.602L449.184 697.639C449.184 697.639 485.699 705.964 485.1 691.387C484.92 683.633 484.02 675.912 482.413 668.324L475.65 646.649L475.11 628.947L499.064 629.473L515.714 637.798L530.32 635.198L518.869 609.681C518.869 609.681 489.657 592.505 492.316 588.868C494.974 585.231 555.837 544.086 573.014 454.493C590.191 364.899 567.872 317.298 564.455 296.616C561.037 275.934 526.158 191.585 507.491 176.482C488.825 161.379 428.78 126.5 418.935 127.537C409.091 128.574 407.922 128.72 413.633 140.624Z" fill="black" stroke="black" stroke-miterlimit="10"/>
<path d="M249.638 242.194C251.289 242.194 280.311 241.668 287.614 245.32C294.917 248.971 300.117 244.809 298.028 252.097C295.939 259.386 278.251 254.682 278.251 254.682C278.251 254.682 289.703 263.022 292.302 270.822C294.902 278.622 286.577 281.236 281.888 273.948C277.2 266.659 270.437 257.297 270.437 257.297C270.437 257.297 267.793 260.934 258.183 268.748C248.572 276.562 246.849 276.562 246.936 269.274C247.024 261.985 260.549 252.097 260.549 252.097C260.549 252.097 246.498 258.655 244.935 251.206C243.372 243.757 242.876 241.931 249.638 242.194Z" fill="black" stroke="black" stroke-miterlimit="10"/>
<path d="M144.474 127.581C144.474 127.581 163.987 83.398 174.679 62.0002C185.371 40.6024 204.344 10.4702 212.158 2.11558C219.972 -6.23905 235.06 34.9207 236.112 39.6092C237.163 44.2977 243.97 78.6072 243.97 78.6072C243.97 78.6072 294.419 110.945 321.484 108.345C337.237 106.869 352.885 104.43 368.34 101.042L380.843 56.26C380.843 56.26 381.88 29.7063 384.48 20.8697C387.079 12.033 401.087 11.4926 415.152 38.5575C429.218 65.6225 438.054 65.6371 454.72 102.605C471.385 139.573 484.224 159.86 485.086 169.792C485.948 179.725 479.243 177.095 479.243 177.095C479.243 177.095 340.749 110.448 271.254 112.537C201.758 114.626 172.079 146.379 158.028 143.765C143.977 141.15 137.463 143.297 144.474 127.581Z" fill="black" stroke="black" stroke-miterlimit="10"/>
<path d="M461.016 546.7C456.05 553.141 445.388 565.951 457.89 562.767C470.393 559.583 503.695 560.693 512.546 552.367C521.397 544.042 529.737 541.427 521.923 538.827C514.109 536.228 467.019 538.886 461.016 546.7Z" fill="#CC0000" stroke="black" stroke-miterlimit="10"/>
<path d="M500.056 492.03C494.915 500.399 488.605 504.007 506.308 503.481C524.01 502.955 535.52 503.481 539.624 502.955C543.728 502.429 547.949 493.067 547.949 493.067C547.949 493.067 505.504 483.193 500.056 492.03Z" fill="#CC0000" stroke="black" stroke-miterlimit="10"/>
<path d="M513.086 432.073C512.326 439.478 525.048 443.611 525.048 443.611H551.061L562.512 439.449L563.038 432.073C563.038 432.073 514.634 416.882 513.086 432.073Z" fill="#CC0000" stroke="black" stroke-miterlimit="10"/>
<path d="M521.281 361.35C523.208 364.446 530.249 375.415 545.351 365.527C560.454 355.639 559.402 351.987 559.402 351.987C559.402 351.987 518.038 356.121 521.281 361.35Z" fill="#CC0000" stroke="black" stroke-miterlimit="10"/>
<path d="M191.856 684.128C201.758 706.622 224.135 722.659 224.135 722.659L258.211 751.871L292.856 756.034L280.353 724.806L266.171 695.594C266.171 695.594 265.776 686.217 251.2 680.988C236.623 675.759 241.837 669.143 225.172 668.295C208.506 667.448 180.404 658.1 191.856 684.128Z" fill="black"/>
<path d="M547.95 625.821C542.516 646.269 563.053 650.14 563.053 650.14H579.367C579.367 650.14 556.275 594.593 547.95 625.821Z" fill="black"/>
<path d="M494.609 650.14C493.309 653.806 478.192 677.892 504.22 677.892C530.248 677.892 499.751 635.651 494.609 650.14Z" fill="black"/>
<path d="M496.931 251.148C494.916 252.521 515.671 253.368 518.84 256.347C522.01 259.327 520.301 259.269 523.354 262.088C525.288 263.76 527.736 264.724 530.292 264.819L531.343 256.347C531.343 256.347 510.471 241.931 496.931 251.148Z" fill="#CC0000" stroke="black" stroke-miterlimit="10"/>
<path d="M324.434 212.457C322.228 217.379 322.009 221.133 325.821 222.521C329.633 223.908 331.664 224.259 333.124 219.41C334.585 214.56 327.589 205.519 324.434 212.457Z" fill="#CC0000" stroke="black" stroke-miterlimit="10"/>
<path d="M204.694 205.519C200.78 209.9 201.233 211.361 204.344 213.844C207.455 216.327 208.857 216.97 210.946 213.844C213.034 210.718 210.244 199.267 204.694 205.519Z" fill="#CC0000" stroke="black" stroke-miterlimit="10"/>
</svg>
