<svg width="295" height="348" viewBox="0 0 295 348" fill="none" xmlns="http://www.w3.org/2000/svg">
<path d="M167.665 5H167.645L161.095 5.00999C156.805 5.01999 152.865 7.36 150.815 11.13C149.665 13.25 141.115 28.02 136.145 36.6L122.955 36.65C118.005 28.07 109.485 13.3 108.335 11.17C106.295 7.39 102.345 5.03 98.045 5.03L91.505 5.02H91.485C88.945 5.02 86.475 5.84 84.455 7.37C70.335 17.98 58.075 30.62 48.015 44.94C38.555 58.4 31.205 73.1 26.155 88.64C16.365 118.77 6.805 172.55 15.715 199.25C3.195 219.86 0.215007 253.01 14.535 264.04C11.465 276.11 8.495 286.42 32.455 303.79C64.865 327.29 108.325 355.99 194.755 336.61C219.195 335.89 245.995 327.35 245.995 292.3C270.875 291.05 290.705 275.02 289.875 251.37C289.895 232.52 270.435 195.42 240.995 194.24C249.905 167.55 242.525 118.51 232.825 88.5C227.815 73 220.495 58.32 211.065 44.89C201.045 30.6 188.805 17.97 174.705 7.36C172.675 5.82 170.205 5 167.665 5Z" fill="#C8C7C6"/>
<path d="M121.917 41.3497L120.957 38.8297C116.457 30.5597 106.457 16.3597 102.007 7.7197C55.0767 45.0997 33.2567 128.54 46.6067 199.15C45.0167 201.94 41.2167 204.42 42.2367 207.16C45.8667 216.97 60.6767 225.65 91.8867 224.47C96.0067 224.31 147.477 206.21 188.267 216.22C142.827 214.18 94.6667 239.19 89.5667 238.38C49.5667 232.05 37.9067 216.45 37.2567 218.15C35.5267 222.65 34.0367 227.54 32.6967 233.37C29.1967 248.63 32.1667 269.59 49.7067 270.92C79.5267 272.25 83.9367 256.56 109.557 260.21C97.8867 264.77 83.1967 275.19 52.5467 280.98C65.6067 315.17 109.977 338.74 138.047 338.73C158.807 338.72 179.147 347.56 226.407 329.23C234.857 325.95 238.027 303.86 247.587 290.59C303.687 285.73 282.837 254.24 286.017 236.7C280.647 222.53 287.027 216.36 266.507 210.93C262.767 209.94 252.687 220.64 249.227 219.5C224.177 211.27 205.237 200.01 175.217 197.67C201.127 190.31 236.467 204.61 262.087 208.36C271.657 209.76 261.907 194.21 254.047 180.21C253.417 179.08 231.597 183.31 221.057 177.78C207.327 170.58 204.087 153.28 203.417 151.94C203.227 151.56 216.197 163.29 229.037 168.73C238.707 172.82 249.187 171.03 249.057 170.76C247.997 168.52 246.507 154.78 246.047 153.05C241.777 137.15 240.657 130.49 239.647 124.27C231.797 76.3097 203.907 32.3797 170.457 7.67969C166.847 16.3197 158.417 30.5197 154.727 38.7997L153.047 41.3097L121.917 41.3497Z" fill="white"/>
<path d="M167.665 5H167.645L161.095 5.00999C156.805 5.01999 152.865 7.36 150.815 11.13C149.665 13.25 141.115 28.02 136.145 36.6L122.955 36.65C118.005 28.07 109.485 13.3 108.335 11.17C106.295 7.39 102.345 5.03 98.045 5.03L91.505 5.02H91.485C88.945 5.02 86.475 5.84 84.455 7.37C70.335 17.98 58.075 30.62 48.015 44.94C38.555 58.4 31.205 73.1 26.155 88.64C16.365 118.77 6.805 172.55 15.715 199.25C3.195 219.86 0.215007 253.01 14.535 264.04C11.465 276.11 8.495 286.42 32.455 303.79C64.865 327.29 108.325 355.99 194.755 336.61C219.195 335.89 245.995 327.35 245.995 292.3C270.875 291.05 290.705 275.02 289.875 251.37C289.895 232.52 270.435 195.42 240.995 194.24C249.905 167.55 242.525 118.51 232.825 88.5C227.815 73 220.495 58.32 211.065 44.89C201.045 30.6 188.805 17.97 174.705 7.36C172.675 5.82 170.205 5 167.665 5Z" stroke="#060606" stroke-width="10.0001" stroke-miterlimit="10"/>
<path d="M219.746 151.97C219.746 151.97 215.156 162.72 221.046 176.26C226.936 189.81 238.796 216.06 237.966 222.03C237.526 225.23 222.066 234.51 211.646 238.74C197.086 244.66 185.066 245.59 182.416 249.71C179.766 253.83 183.246 261.8 197.376 260.03C211.506 258.26 234.246 246.76 246.906 240.87C259.566 234.98 260.546 233.07 260.546 226.29C260.546 219.51 259.076 195.66 254.066 183.59C249.056 171.52 245.066 165.85 245.066 165.85L244.236 146.43" fill="white"/>
<path d="M219.746 151.97C219.746 151.97 215.156 162.72 221.046 176.26C226.936 189.81 238.796 216.06 237.966 222.03C237.526 225.23 222.066 234.51 211.646 238.74C197.086 244.66 185.066 245.59 182.416 249.71C179.766 253.83 183.246 261.8 197.376 260.03C211.506 258.26 234.246 246.76 246.906 240.87C259.566 234.98 260.546 233.07 260.546 226.29C260.546 219.51 259.076 195.66 254.066 183.59C249.056 171.52 245.066 165.85 245.066 165.85L244.236 146.43" stroke="#060606" stroke-width="10.0001" stroke-miterlimit="10"/>
<path d="M88.2964 97.3394H39.3164" stroke="#060606" stroke-width="10" stroke-miterlimit="10" stroke-linejoin="round"/>
<path d="M88.2964 82.2896H39.3164" stroke="#060606" stroke-width="10" stroke-miterlimit="10" stroke-linejoin="round"/>
<path d="M243.676 97.3394H219.916" stroke="#060606" stroke-width="10" stroke-miterlimit="10" stroke-linejoin="round"/>
<path d="M243.676 82.2896H219.916" stroke="#060606" stroke-width="10" stroke-miterlimit="10" stroke-linejoin="round"/>
<path d="M132.076 78.5296C132.076 84.5896 128.526 89.4996 124.146 89.4996C119.766 89.4996 116.216 84.5896 116.216 78.5296C116.216 72.4696 119.766 67.5596 124.146 67.5596C128.526 67.5596 132.076 72.4696 132.076 78.5296Z" fill="#060606"/>
<path d="M124.156 89.4996C128.536 89.4996 132.086 84.5881 132.086 78.5296C132.086 72.471 128.536 67.5596 124.156 67.5596C119.777 67.5596 116.226 72.471 116.226 78.5296C116.226 84.5881 119.777 89.4996 124.156 89.4996Z" stroke="#060606" stroke-width="12" stroke-miterlimit="10" stroke-linejoin="round"/>
<path d="M191.836 78.5296C191.836 84.5896 188.286 89.4996 183.906 89.4996C179.526 89.4996 175.976 84.5896 175.976 78.5296C175.976 72.4696 179.526 67.5596 183.906 67.5596C188.286 67.5596 191.836 72.4696 191.836 78.5296Z" fill="#060606"/>
<path d="M183.916 89.4996C188.296 89.4996 191.846 84.5881 191.846 78.5296C191.846 72.471 188.296 67.5596 183.916 67.5596C179.537 67.5596 175.986 72.471 175.986 78.5296C175.986 84.5881 179.537 89.4996 183.916 89.4996Z" stroke="#060606" stroke-width="12" stroke-miterlimit="10" stroke-linejoin="round"/>
<path d="M146.896 82.2896H161.166" stroke="#060606" stroke-width="7" stroke-miterlimit="10" stroke-linecap="round" stroke-linejoin="round"/>
<path d="M147.426 92.6598L154.036 86.0498L160.646 92.6598" stroke="#060606" stroke-width="7" stroke-miterlimit="10" stroke-linecap="round" stroke-linejoin="round"/>
<path d="M62.125 161.469C62.125 161.469 64.475 189.089 68.675 209.549C72.255 226.979 76.995 239.289 85.105 244.739C92.535 249.739 146.655 262.409 173.445 261.819C200.245 261.229 206.145 259.279 204.075 252.399C202.075 245.769 160.495 243.269 137.225 237.679C113.965 232.079 102.445 227.649 101.595 225.019C93.935 201.379 92.015 181.209 90.895 160.739" fill="white"/>
<path d="M62.125 161.469C62.125 161.469 64.475 189.089 68.675 209.549C72.255 226.979 76.995 239.289 85.105 244.739C92.535 249.739 146.655 262.409 173.445 261.819C200.245 261.229 206.145 259.279 204.075 252.399C202.075 245.769 160.495 243.269 137.225 237.679C113.965 232.079 102.445 227.649 101.595 225.019C93.935 201.379 92.015 181.209 90.895 160.739" stroke="#060606" stroke-width="10.0001" stroke-miterlimit="10"/>
</svg>
