<svg width="190" height="53" viewBox="0 0 190 53" fill="none" xmlns="http://www.w3.org/2000/svg">
<g clip-path="url(#clip0_3:69)">
<path d="M77.813 46.0223C79.452 46.0223 80.7115 44.8894 80.7115 43.0002V31.852L94.1285 45.0792C95.4512 46.4019 97.579 46.3386 98.6631 45.0792C99.7989 43.6932 99.4193 41.9909 98.088 40.6682L86.6953 29.3934L97.2138 19.6945C98.6516 18.3717 98.8529 16.7327 97.8436 15.5365C96.8371 14.2771 94.948 14.1505 93.562 15.41L80.7115 27.2512V7.6002C80.7115 5.71101 79.452 4.5752 77.813 4.5752C76.2401 4.5752 74.9807 5.71101 74.9807 7.6002V43.0002C74.9807 44.8894 76.2401 46.0223 77.813 46.0223Z" fill="black"/>
<path d="M103.074 30.2761C103.074 39.7882 108.805 46.5283 117.434 46.5283C126.064 46.5283 131.812 39.7882 131.812 30.2761C131.812 20.764 126.078 14.0239 117.434 14.0239C108.791 14.0239 103.074 20.764 103.074 30.2761ZM117.434 19.5678C122.538 19.5678 126 23.9127 126 30.2761C126 36.6396 122.55 40.9844 117.434 40.9844C112.319 40.9844 108.868 36.6367 108.868 30.2761C108.868 23.9156 112.333 19.5678 117.434 19.5678Z" fill="black"/>
<path d="M137.968 20.0709H144.142V43C144.142 44.8891 145.401 46.0221 146.977 46.0221C148.616 46.0221 149.876 44.8891 149.876 43V20.0709H156.046C157.939 20.0709 159.008 18.8747 159.008 17.2989C159.008 15.6628 157.939 14.5299 156.046 14.5299H149.876V8.54312C149.876 6.65393 148.616 5.521 146.977 5.521C145.401 5.521 144.142 6.65393 144.142 8.54312V14.5299H137.968C136.079 14.5299 135.009 15.6628 135.009 17.2989C135.009 18.8747 136.079 20.0709 137.968 20.0709Z" fill="black"/>
<path d="M174.001 9.55253C175.134 10.7487 176.897 10.6855 178.282 9.42601L182.944 5.14442C184.33 3.88209 184.381 1.9814 183.323 0.859962C182.187 -0.336236 180.425 -0.272976 179.039 0.986483L174.378 5.26807C172.992 6.52753 172.928 8.41959 174.001 9.55253ZM168.215 27.3172C168.595 22.7826 172.057 19.5074 176.468 19.5074C181.382 19.5074 184.091 22.9091 184.404 27.3172H168.215ZM177.417 46.5312C183.907 46.5312 188.945 42.8132 188.945 39.7278C188.945 38.0255 187.749 37.1399 186.299 37.1399C185.419 37.1399 184.913 37.5798 184.286 38.1463C182.021 40.2252 180.192 41.0448 177.42 41.0448C171.563 41.0448 168.218 36.6338 168.218 32.542H185.353C188.186 32.542 190.014 30.7132 190.014 28.0045C190.014 20.4477 185.227 14.021 176.661 14.021C168.408 14.021 162.234 19.818 162.234 30.21C162.22 40.5444 168.215 46.5283 177.4 46.5283L177.417 46.5312Z" fill="black"/>
<path d="M27.2593 50.6719C17.9112 50.6719 9.4745 45.2862 6.26835 37.2722C4.54306 32.9245 4.40791 28.0391 5.92329 23.1421C7.59107 17.742 11.1653 12.408 16.5395 7.28963C16.9133 6.93381 17.4095 6.73514 17.9255 6.73466C18.006 6.73037 18.0866 6.73037 18.1671 6.73466C18.4585 6.772 18.7382 6.8727 18.9866 7.02967C19.235 7.18665 19.446 7.3961 19.6048 7.64331L22.5177 12.1521C24.0687 11.9113 25.6351 11.7825 27.2047 11.7667C28.8131 11.7893 30.4182 11.918 32.0096 12.1521L34.8851 7.65769C35.0439 7.41047 35.2549 7.20102 35.5033 7.04405C35.7517 6.88707 36.0314 6.78638 36.3228 6.74904C36.4023 6.74484 36.482 6.74484 36.5615 6.74904C37.0785 6.74878 37.5759 6.9475 37.9503 7.30401C43.3562 12.4109 46.9276 17.7449 48.5954 23.1364C50.105 28.0247 49.9842 32.8958 48.2503 37.2262C45.0355 45.2718 36.5989 50.6719 27.2593 50.6719Z" fill="white" stroke="black" stroke-width="4.31322" stroke-miterlimit="10"/>
<path d="M0 26.0493H54.519" stroke="#040404" stroke-width="2.87548" stroke-linejoin="round"/>
<path d="M0 31.478H54.519" stroke="#040404" stroke-width="2.87548" stroke-linejoin="round"/>
<path d="M41.9903 21.644H12.531V36.8582H41.9903V21.644Z" fill="white"/>
<path d="M25.764 28.689H28.7775" stroke="#040404" stroke-width="1.43774" stroke-linecap="round" stroke-linejoin="round"/>
<path d="M25.8735 31.3833L27.271 29.9858L28.6656 31.3833" stroke="#040404" stroke-width="1.43774" stroke-linecap="round" stroke-linejoin="round"/>
<path d="M19.412 25.2441C17.7097 25.2441 16.3237 26.7969 16.3237 28.6947C16.3237 30.5925 17.7097 32.1453 19.412 32.1453C21.1143 32.1453 22.5031 30.5954 22.5031 28.6947C22.5031 26.794 21.1172 25.2441 19.412 25.2441Z" fill="#040404"/>
<path d="M35.1265 25.2441C33.4243 25.2441 32.0383 26.7969 32.0383 28.6947C32.0383 30.5925 33.4243 32.1453 35.1265 32.1453C36.8288 32.1453 38.2177 30.5954 38.2177 28.6947C38.2177 26.794 36.8317 25.2441 35.1265 25.2441Z" fill="#040404"/>
</g>
<defs>
<clipPath id="clip0_3:69">
<rect width="190" height="52.8283" fill="white"/>
</clipPath>
</defs>
</svg>
